<?xml version="1.0" encoding="UTF-8" standalone="no"?>
<!-- Created with Inkscape (http://www.inkscape.org/) -->

<svg
   version="1.1"
   id="svg2"
   width="1023.9999"
   height="1024"
   viewBox="0 0 1024 1024"
   xmlns="http://www.w3.org/2000/svg"
   xmlns:svg="http://www.w3.org/2000/svg">
  <defs
     id="defs6" />
  <g
     id="g8"
     transform="translate(1.1202522,-4.796942)">
    <g
       id="g170"
       transform="translate(-1.1202522,4.796942)">
      <path
         style="fill:#d0d0d0;fill-opacity:1"
         d="m 224.5,1021.3794 c -22.67966,-2.3491 -23.32731,-2.4813 -46.5,-9.4898 -22.87651,-6.919 -24.07829,-7.4164 -45.29635,-18.74857 C 111.96946,982.06728 109.98824,980.74466 92.047757,966 74.386404,951.48474 72.213384,949.31171 57.844112,931.7961 43.477367,914.28357 41.777036,911.74731 31.149872,891.97827 20.180443,871.57253 19.554271,870.06631 12.481238,847.07185 L 5.162733,823.27936 2.5813665,797.82597 0,772.37259 0.0012606,511.9363 0.00252119,251.5 2.5159147,226.5 5.0293082,201.5 12.090536,178 C 19.147155,154.51534 19.15997,154.48491 31.726987,131.37909 43.639493,109.47666 45.071578,107.33448 58.901106,90.73066 72.153362,74.819919 75.225046,71.787071 92.201216,57.851569 109.93146,43.297055 112.03423,41.895214 132.70122,30.851595 153.95391,19.494996 155.0887,19.025511 178,12.110561 l 23.5,-7.0926295 25,-2.5006745 25,-2.50067448 L 511.9363,0.00829126 772.37259,0 797.9363,2.578859 823.5,5.1577181 l 23,7.0088359 c 22.36431,6.815121 23.61648,7.339341 45.30513,18.966866 21.25268,11.3938 23.16363,12.66851 40.5,27.015656 16.78432,13.890294 19.3965,16.51949 33.69487,33.914455 14.52366,17.669039 16.21492,20.182939 26.84973,39.909579 10.69347,19.83539 11.75437,22.33859 18.34797,43.28982 l 6.9983,22.23707 2.8662,26.5 2.8662,26.5 0.036,260.9363 0.036,260.93629 -2.5814,25.45338 -2.5813,25.45339 -7.3309,23.83272 c -7.0467,22.90889 -7.7624,24.63812 -18.46368,44.61032 -10.46642,19.53391 -12.07285,21.92347 -26.83776,39.92103 -14.7491,17.9783 -16.84467,20.08062 -34.43052,34.54149 -17.80911,14.64446 -19.79122,15.96663 -40.5,27.01538 -20.43326,10.9018 -23.09433,12.0279 -43.20325,18.2835 -21.40345,6.6582 -21.46028,6.6695 -48,9.5771 l -26.57119,2.9111 -263,-0.1052 -263,-0.1051 -23,-2.3823 z M 379,978.08447 c 0,-0.50354 -17.82269,-42.46604 -39.60597,-93.25 -21.78329,-50.78396 -40.0414,-93.54067 -40.57358,-95.01492 -0.86535,-2.39718 -0.33918,-3.5068 4.97902,-10.5 24.08602,-31.67207 42.0156,-80.41278 53.15409,-144.49689 5.06009,-29.11274 8.73634,-63.61512 11.16891,-104.82266 1.51108,-25.59763 1.50742,-105.13432 -0.006,-130.5 -5.85935,-98.20505 -19.89159,-165.87089 -44.79311,-216 -8.89745,-17.9114 -17.82451,-30.91591 -29.65206,-43.19569 -16.38058,-17.0069 -32.50239,-26.35446 -52.66126,-30.53344 -12.63559,-2.61939 -34.46667,-2.0516 -46.48015,1.20888 C 129.76874,128.55598 88.319278,214.28016 75.573845,357 c -2.739398,30.67501 -3.593814,48.54997 -4.23027,88.5 -2.263496,142.07862 16.328469,252.4675 53.021905,314.81496 15.87295,26.97044 37.43752,47.45037 58.52719,55.5834 12.40076,4.78224 19.52457,6.22828 32.60733,6.61884 l 12,0.35823 30.41413,78.06229 L 288.32826,979 h 45.33587 C 360.43269,979 379,978.62505 379,978.08447 Z M 211,697.69334 C 179.58432,690.4934 158.14221,645.39164 149.57938,568.5 c -7.03362,-63.15977 -6.60088,-155.71283 1.00526,-215 9.60996,-74.90622 30.79204,-115.67027 63.24102,-121.70477 13.4823,-2.5073 27.33799,2.30266 38.3015,13.29624 C 282.52819,275.57587 297.61894,357.66469 295.6791,482 294.07805,584.62028 282.3017,645.88608 257.96738,678.19304 245.99768,694.08436 227.9493,701.57783 211,697.69334 Z m 607,124.26603 c 63.13889,-9.96164 100.01163,-84.5005 99.99757,-202.14676 -0.005,-42.4531 -4.29445,-74.15536 -14.15446,-104.61393 -11.73727,-36.25759 -28.10922,-62.83035 -63.62619,-103.26954 -31.59917,-35.97842 -40.31595,-48.80917 -46.51646,-68.47038 -3.55293,-11.26599 -4.75274,-21.41147 -4.7545,-40.20374 -0.004,-47.66608 14.41801,-73.42406 39.67056,-70.85012 16.89083,1.72165 31.26206,9.87144 54.63348,30.98213 5.9125,5.34058 10.75613,9.57578 10.76363,9.41156 0.007,-0.16423 5.16101,-26.08932 11.45225,-57.61132 l 11.43862,-57.31273 -6.81558,-6.42947 C 889.30503,131.83861 871.07658,120.00199 851.5,113.40044 c -9.87862,-3.33124 -12.32968,-3.7572 -24.04332,-4.17835 -11.05277,-0.3974 -14.32848,-0.14398 -21.4644,1.66054 -15.92073,4.02602 -28.03334,11.15965 -39.56284,23.30027 -25.70758,27.07018 -41.87042,74.21988 -46.38648,135.3171 -1.33004,17.99393 -1.33655,56.53612 -0.0123,73.10478 3.93176,49.19485 16.88143,92.29713 37.97362,126.3932 6.89071,11.13901 17.9689,25.16748 35.18409,44.55414 25.34319,28.53989 32.06991,37.39011 40.68724,53.53137 10.96707,20.54261 14.67195,38.47267 13.82166,66.89106 -0.63806,21.32534 -2.66302,32.19963 -8.14794,43.75543 -7.1638,15.09291 -18.04285,22.54177 -33.007,22.5998 -11.0124,0.0427 -17.18314,-1.57502 -30.04228,-7.87589 -14.10286,-6.91029 -28.54148,-17.7974 -46.68635,-35.20275 L 715.5,643.52085 l -0.28207,68.98957 -0.28207,68.98958 7.02345,6.74777 c 23.75019,22.81793 50.39172,34.34882 80.04069,34.64289 5.225,0.0518 12.425,-0.36726 16,-0.93129 z M 463.4206,810.25 c 0.32802,-2.0625 5.31335,-37.95 11.07852,-79.75 5.76517,-41.8 10.73174,-77.4625 11.03682,-79.25 l 0.55469,-3.25 h 56.7133 56.7133 l 8.3329,60.75 c 4.5831,33.4125 9.70971,70.7625 11.39247,83 l 3.05955,22.25 h 35.98485 35.98485 l -0.59347,-4.25 C 693.35197,807.4125 668.9908,650.53664 639.54245,461.13697 610.0941,271.7373 586,116.5998 586,116.38697 586,116.17414 566.46075,116 542.57946,116 h -43.42055 l -0.57488,2.75 C 498.02904,121.40488 391,812.61201 391,813.54136 391,813.79361 407.16045,814 426.9121,814 h 35.9121 z m 40.05923,-289.5 c 1.15119,-6.55847 19.72952,-141.37866 24.49409,-177.75 5.4233,-41.39978 11.40862,-90.69097 13.35705,-110 l 1.26135,-12.5 1.29374,13 c 2.83949,28.53227 9.49777,80.2812 18.52776,144 5.22224,36.85 11.78177,83.425 14.57673,103.5 2.79497,20.075 5.34057,37.9625 5.65689,39.75 l 0.57514,3.25 h -40.1566 -40.15661 z"
         id="path186" />
      <path
         style="fill:#b9b9b9;fill-opacity:1"
         d="m 408.75,813.25145 c 10.0375,-0.16311 26.4625,-0.16311 36.5,0 10.0375,0.16311 1.825,0.29656 -18.25,0.29656 -20.075,0 -28.2875,-0.13345 -18.25,-0.29656 z m 231,0 c 10.0375,-0.16311 26.4625,-0.16311 36.5,0 10.0375,0.16311 1.825,0.29656 -18.25,0.29656 -20.075,0 -28.2875,-0.13345 -18.25,-0.29656 z M 740.87244,668.25 c -1.24387,-1.58606 -1.2085,-1.62143 0.37756,-0.37756 0.9625,0.75485 1.75,1.54235 1.75,1.75 0,0.82304 -0.82119,0.29331 -2.12756,-1.37244 z m -16.90133,-16 -6.47111,-6.75 6.75,6.47111 c 6.26969,6.01065 7.20713,7.02889 6.47111,7.02889 -0.15339,0 -3.19089,-3.0375 -6.75,-6.75 z m 124.10784,-24.83333 c 0.048,-1.16495 0.28494,-1.4019 0.60416,-0.60417 0.28887,0.72187 0.25335,1.58438 -0.0789,1.91667 -0.33229,0.33229 -0.56864,-0.25834 -0.52522,-1.3125 z M 798.87244,520.25 c -1.24387,-1.58606 -1.2085,-1.62143 0.37756,-0.37756 0.9625,0.75485 1.75,1.54235 1.75,1.75 0,0.82304 -0.82119,0.29331 -2.12756,-1.37244 z m -430.79349,-0.83333 c 0.048,-1.16495 0.28494,-1.4019 0.60416,-0.60417 0.28887,0.72187 0.25335,1.58438 -0.0789,1.91667 -0.33229,0.33229 -0.56864,-0.25834 -0.52522,-1.3125 z M 790.87244,511.25 c -1.24387,-1.58606 -1.2085,-1.62143 0.37756,-0.37756 0.9625,0.75485 1.75,1.54235 1.75,1.75 0,0.82304 -0.82119,0.29331 -2.12756,-1.37244 z M 295.15789,504 c 0,-1.375 0.22698,-1.9375 0.50439,-1.25 0.27741,0.6875 0.27741,1.8125 0,2.5 -0.27741,0.6875 -0.50439,0.125 -0.50439,-1.25 z M 71.232003,499 c 0,-1.925 0.205795,-2.7125 0.457323,-1.75 0.251527,0.9625 0.251527,2.5375 0,3.5 -0.251528,0.9625 -0.457323,0.175 -0.457323,-1.75 z m 73.077867,-17.5 c 0.006,-3.3 0.1923,-4.52944 0.41486,-2.73209 0.22256,1.79735 0.21797,4.49735 -0.0102,6 -0.22818,1.50265 -0.41027,0.0321 -0.40466,-3.26791 z m 225.0102,-4.5 c 0,-3.575 0.1815,-5.0375 0.40333,-3.25 0.22182,1.7875 0.22182,4.7125 0,6.5 -0.22183,1.7875 -0.40333,0.325 -0.40333,-3.25 z m 0,-27 c 0,-3.575 0.1815,-5.0375 0.40333,-3.25 0.22182,1.7875 0.22182,4.7125 0,6.5 -0.22183,1.7875 -0.40333,0.325 -0.40333,-3.25 z m -225.0102,-1.5 c 0.006,-3.3 0.1923,-4.52944 0.41486,-2.73209 0.22256,1.79735 0.21797,4.49735 -0.0102,6 -0.22818,1.50265 -0.41027,0.0321 -0.40466,-3.26791 z m -73.114921,-19 c 0.02038,-1.65 0.244498,-2.20394 0.498042,-1.23097 0.253543,0.97297 0.236869,2.32297 -0.03705,3 C 71.382014,431.94606 71.174569,431.15 71.194949,429.5 Z M 295.15789,427 c 0,-1.375 0.22698,-1.9375 0.50439,-1.25 0.27741,0.6875 0.27741,1.8125 0,2.5 -0.27741,0.6875 -0.50439,0.125 -0.50439,-1.25 z m 545.71455,-13.75 c -1.24387,-1.58606 -1.2085,-1.62143 0.37756,-0.37756 0.9625,0.75485 1.75,1.54235 1.75,1.75 0,0.82304 -0.82119,0.29331 -2.12756,-1.37244 z m -695.79349,-0.83333 c 0.048,-1.16495 0.28494,-1.4019 0.60416,-0.60417 0.28887,0.72187 0.25335,1.58438 -0.0789,1.91667 -0.3323,0.33229 -0.56864,-0.25834 -0.52522,-1.3125 z m 223,-2 c 0.048,-1.16495 0.28494,-1.4019 0.60416,-0.60417 0.28887,0.72187 0.25335,1.58438 -0.0789,1.91667 -0.33229,0.33229 -0.56864,-0.25834 -0.52522,-1.3125 z M 788.232,307 c 0,-1.925 0.2058,-2.7125 0.45733,-1.75 0.25152,0.9625 0.25152,2.5375 0,3.5 -0.25153,0.9625 -0.45733,0.175 -0.45733,-1.75 z m 0,-7 c 0,-1.925 0.2058,-2.7125 0.45733,-1.75 0.25152,0.9625 0.25152,2.5375 0,3.5 -0.25153,0.9625 -0.45733,0.175 -0.45733,-1.75 z m 93.64044,-37.75 c -1.24387,-1.58606 -1.2085,-1.62143 0.37756,-0.37756 1.66575,1.30637 2.19548,2.12756 1.37244,2.12756 -0.20765,0 -0.99515,-0.7875 -1.75,-1.75 z M 147,139.62244 c 0,-0.20765 0.7875,-0.99515 1.75,-1.75 1.58606,-1.24387 1.62143,-1.2085 0.37756,0.37756 C 147.82119,139.91575 147,140.44548 147,139.62244 Z"
         id="path184" />
      <path
         style="fill:#a3a3a3;fill-opacity:1"
         d="M 722.40499,788.75 720.5,786.5 l 2.25,1.90499 c 1.2375,1.04774 2.25,2.06024 2.25,2.25 0,0.80025 -0.80479,0.20945 -2.59501,-1.90499 z m -6,-6 -1.90499,-2.25 2.25,1.90499 c 2.11444,1.79022 2.70524,2.59501 1.90499,2.59501 -0.18976,0 -1.20226,-1.0125 -2.25,-2.25 z M 830.5,691 c 0.99549,-1.1 2.03498,-2 2.30998,-2 0.275,0 -0.31449,0.9 -1.30998,2 -0.99549,1.1 -2.03498,2 -2.30998,2 -0.275,0 0.31449,-0.9 1.30998,-2 z m -98.62756,-30.75 c -1.24387,-1.58606 -1.2085,-1.62143 0.37756,-0.37756 0.9625,0.75485 1.75,1.54235 1.75,1.75 0,0.82304 -0.82119,0.29331 -2.12756,-1.37244 z M 848.232,632 c 0,-1.925 0.2058,-2.7125 0.45733,-1.75 0.25152,0.9625 0.25152,2.5375 0,3.5 -0.25153,0.9625 -0.45733,0.175 -0.45733,-1.75 z m -0.0741,-8 c 0,-1.375 0.22698,-1.9375 0.50439,-1.25 0.27741,0.6875 0.27741,1.8125 0,2.5 -0.27741,0.6875 -0.50439,0.125 -0.50439,-1.25 z m 68.92106,-26.58333 c 0.048,-1.16495 0.28494,-1.4019 0.60416,-0.60417 0.28887,0.72187 0.25335,1.58438 -0.0789,1.91667 -0.33229,0.33229 -0.56864,-0.25834 -0.52522,-1.3125 z m -845.000003,-73 c 0.04798,-1.16495 0.284941,-1.4019 0.604167,-0.60417 0.288871,0.72187 0.253344,1.58438 -0.07895,1.91667 -0.332292,0.33229 -0.568641,-0.25834 -0.52522,-1.3125 z m 296.000003,-8 c 0.048,-1.16495 0.28494,-1.4019 0.60416,-0.60417 0.28887,0.72187 0.25335,1.58438 -0.0789,1.91667 -0.33229,0.33229 -0.56864,-0.25834 -0.52522,-1.3125 z m -73,-9 c 0.048,-1.16495 0.28494,-1.4019 0.60416,-0.60417 0.28887,0.72187 0.25335,1.58438 -0.0789,1.91667 -0.33229,0.33229 -0.56864,-0.25834 -0.52522,-1.3125 z M 71.194949,493.5 c 0.02038,-1.65 0.244498,-2.20394 0.498042,-1.23097 0.253543,0.97297 0.236869,2.32297 -0.03705,3 C 71.382014,495.94606 71.174569,495.15 71.194949,493.5 Z m 73.057231,-3 c 0.0111,-2.2 0.21589,-2.98225 0.45508,-1.73834 0.23919,1.24391 0.23011,3.04391 -0.0202,4 -0.25029,0.95609 -0.446,-0.0617 -0.4349,-2.26166 z m 225.09063,-27 c 0.004,-4.4 0.17944,-6.07561 0.39069,-3.72357 0.21124,2.35204 0.20827,5.95204 -0.007,8 -0.21487,2.04796 -0.38771,0.12357 -0.38408,-4.27643 z m -225.09063,-24 c 0.0111,-2.2 0.21589,-2.98225 0.45508,-1.73834 0.23919,1.24391 0.23011,3.04391 -0.0202,4 -0.25029,0.95609 -0.446,-0.0617 -0.4349,-2.26166 z M 71.232003,435 c 0,-1.925 0.205795,-2.7125 0.457323,-1.75 0.251527,0.9625 0.251527,2.5375 0,3.5 -0.251528,0.9625 -0.457323,0.175 -0.457323,-1.75 z M 295.07895,423.41667 c 0.048,-1.16495 0.28494,-1.4019 0.60416,-0.60417 0.28887,0.72187 0.25335,1.58438 -0.0789,1.91667 -0.33229,0.33229 -0.56864,-0.25834 -0.52522,-1.3125 z m 73,-10 c 0.048,-1.16495 0.28494,-1.4019 0.60416,-0.60417 0.28887,0.72187 0.25335,1.58438 -0.0789,1.91667 -0.33229,0.33229 -0.56864,-0.25834 -0.52522,-1.3125 z m 351,-82 c 0.048,-1.16495 0.28494,-1.4019 0.60416,-0.60417 0.28887,0.72187 0.25335,1.58438 -0.0789,1.91667 -0.33229,0.33229 -0.56864,-0.25834 -0.52522,-1.3125 z m 69,-20 c 0.048,-1.16495 0.28494,-1.4019 0.60416,-0.60417 0.28887,0.72187 0.25335,1.58438 -0.0789,1.91667 -0.33229,0.33229 -0.56864,-0.25834 -0.52522,-1.3125 z m 0,-16 c 0.048,-1.16495 0.28494,-1.4019 0.60416,-0.60417 0.28887,0.72187 0.25335,1.58438 -0.0789,1.91667 -0.33229,0.33229 -0.56864,-0.25834 -0.52522,-1.3125 z"
         id="path182" />
      <path
         style="fill:#8c8c8c;fill-opacity:1"
         d="m 311.25,978.25096 c 12.5125,-0.15868 32.9875,-0.15868 45.5,0 12.5125,0.15868 2.275,0.28851 -22.75,0.28851 -25.025,0 -35.2625,-0.12983 -22.75,-0.28851 z M 734.87244,663.25 c -1.24387,-1.58606 -1.2085,-1.62143 0.37756,-0.37756 0.9625,0.75485 1.75,1.54235 1.75,1.75 0,0.82304 -0.82119,0.29331 -2.12756,-1.37244 z M 917.15789,640 c 0,-1.375 0.22698,-1.9375 0.50439,-1.25 0.27741,0.6875 0.27741,1.8125 0,2.5 -0.27741,0.6875 -0.50439,0.125 -0.50439,-1.25 z m -69,-20 c 0,-1.375 0.22698,-1.9375 0.50439,-1.25 0.27741,0.6875 0.27741,1.8125 0,2.5 -0.27741,0.6875 -0.50439,0.125 -0.50439,-1.25 z m 68.92106,-19.58333 c 0.048,-1.16495 0.28494,-1.4019 0.60416,-0.60417 0.28887,0.72187 0.25335,1.58438 -0.0789,1.91667 -0.33229,0.33229 -0.56864,-0.25834 -0.52522,-1.3125 z m -549,-87 c 0.048,-1.16495 0.28494,-1.4019 0.60416,-0.60417 0.28887,0.72187 0.25335,1.58438 -0.0789,1.91667 -0.33229,0.33229 -0.56864,-0.25834 -0.52522,-1.3125 z M 144.19495,496.5 c 0.0204,-1.65 0.2445,-2.20394 0.49804,-1.23097 0.25354,0.97297 0.23687,2.32297 -0.0371,3 -0.27393,0.67703 -0.48137,-0.11903 -0.46099,-1.76903 z m -73.000001,-8 c 0.02038,-1.65 0.244498,-2.20394 0.498042,-1.23097 0.253543,0.97297 0.236869,2.32297 -0.03705,3 C 71.382014,490.94606 71.174569,490.15 71.194949,488.5 Z m 0,-48 c 0.02038,-1.65 0.244498,-2.20394 0.498042,-1.23097 0.253543,0.97297 0.236869,2.32297 -0.03705,3 C 71.382014,442.94606 71.174569,442.15 71.194949,440.5 Z M 144.15789,434 c 0,-1.375 0.22698,-1.9375 0.50439,-1.25 0.27741,0.6875 0.27741,1.8125 0,2.5 -0.27741,0.6875 -0.50439,0.125 -0.50439,-1.25 z m 150.92106,-13.58333 c 0.048,-1.16495 0.28494,-1.4019 0.60416,-0.60417 0.28887,0.72187 0.25335,1.58438 -0.0789,1.91667 -0.33229,0.33229 -0.56864,-0.25834 -0.52522,-1.3125 z m 73,-4 c 0.048,-1.16495 0.28494,-1.4019 0.60416,-0.60417 0.28887,0.72187 0.25335,1.58438 -0.0789,1.91667 -0.33229,0.33229 -0.56864,-0.25834 -0.52522,-1.3125 z m -296.000003,-10 c 0.04798,-1.16495 0.284941,-1.4019 0.604167,-0.60417 0.288871,0.72187 0.253344,1.58438 -0.07895,1.91667 -0.332292,0.33229 -0.568641,-0.25834 -0.52522,-1.3125 z m 647.000003,-123 c 0.048,-1.16495 0.28494,-1.4019 0.60416,-0.60417 0.28887,0.72187 0.25335,1.58438 -0.0789,1.91667 -0.33229,0.33229 -0.56864,-0.25834 -0.52522,-1.3125 z M 252.87244,245.25 c -1.24387,-1.58606 -1.2085,-1.62143 0.37756,-0.37756 0.9625,0.75485 1.75,1.54235 1.75,1.75 0,0.82304 -0.82119,0.29331 -2.12756,-1.37244 z"
         id="path180" />
      <path
         style="fill:#767676;fill-opacity:1"
         d="m 866,796.62244 c 0,-0.20765 0.7875,-0.99515 1.75,-1.75 1.58606,-1.24387 1.62143,-1.2085 0.37756,0.37756 C 866.82119,796.91575 866,797.44548 866,796.62244 Z m 51.07895,-160.20577 c 0.048,-1.16495 0.28494,-1.4019 0.60416,-0.60417 0.28887,0.72187 0.25335,1.58438 -0.0789,1.91667 -0.33229,0.33229 -0.56864,-0.25834 -0.52522,-1.3125 z M 917.15789,604 c 0,-1.375 0.22698,-1.9375 0.50439,-1.25 0.27741,0.6875 0.27741,1.8125 0,2.5 -0.27741,0.6875 -0.50439,0.125 -0.50439,-1.25 z M 145.07895,524.41667 c 0.048,-1.16495 0.28494,-1.4019 0.60416,-0.60417 0.28887,0.72187 0.25335,1.58438 -0.0789,1.91667 -0.3323,0.33229 -0.56864,-0.25834 -0.52522,-1.3125 z M 522.75,524.25119 c 11.1375,-0.16093 29.3625,-0.16093 40.5,0 11.1375,0.16094 2.025,0.29261 -20.25,0.29261 -22.275,0 -31.3875,-0.13167 -20.25,-0.29261 z M 72.157895,519 c 0,-1.375 0.226973,-1.9375 0.504386,-1.25 0.277412,0.6875 0.277412,1.8125 0,2.5 -0.277413,0.6875 -0.504386,0.125 -0.504386,-1.25 z m 222.921055,-6.58333 c 0.048,-1.16495 0.28494,-1.4019 0.60416,-0.60417 0.28887,0.72187 0.25335,1.58438 -0.0789,1.91667 -0.33229,0.33229 -0.56864,-0.25834 -0.52522,-1.3125 z m 73,-2 c 0.048,-1.16495 0.28494,-1.4019 0.60416,-0.60417 0.28887,0.72187 0.25335,1.58438 -0.0789,1.91667 -0.33229,0.33229 -0.56864,-0.25834 -0.52522,-1.3125 z M 144.15789,501 c 0,-1.375 0.22698,-1.9375 0.50439,-1.25 0.27741,0.6875 0.27741,1.8125 0,2.5 -0.27741,0.6875 -0.50439,0.125 -0.50439,-1.25 z M 71.34281,478.5 c 0.0036,-4.4 0.179441,-6.07561 0.390687,-3.72357 0.211245,2.35204 0.208273,5.95204 -0.0066,8 C 71.512015,484.82439 71.339178,482.9 71.34281,478.5 Z M 296.232,465 c 0,-1.925 0.2058,-2.7125 0.45733,-1.75 0.25152,0.9625 0.25152,2.5375 0,3.5 -0.25153,0.9625 -0.45733,0.175 -0.45733,-1.75 z M 71.34281,450.5 c 0.0036,-4.4 0.179441,-6.07561 0.390687,-3.72357 0.211245,2.35204 0.208273,5.95204 -0.0066,8 C 71.512015,456.82439 71.339178,454.9 71.34281,450.5 Z M 144.15789,430 c 0,-1.375 0.22698,-1.9375 0.50439,-1.25 0.27741,0.6875 0.27741,1.8125 0,2.5 -0.27741,0.6875 -0.50439,0.125 -0.50439,-1.25 z m 224,-10 c 0,-1.375 0.22698,-1.9375 0.50439,-1.25 0.27741,0.6875 0.27741,1.8125 0,2.5 -0.27741,0.6875 -0.50439,0.125 -0.50439,-1.25 z m -73.07894,-2.58333 c 0.048,-1.16495 0.28494,-1.4019 0.60416,-0.60417 0.28887,0.72187 0.25335,1.58438 -0.0789,1.91667 -0.33229,0.33229 -0.56864,-0.25834 -0.52522,-1.3125 z m -223.000003,-8 c 0.04798,-1.16495 0.284941,-1.4019 0.604167,-0.60417 0.288871,0.72187 0.253344,1.58438 -0.07895,1.91667 -0.332292,0.33229 -0.568641,-0.25834 -0.52522,-1.3125 z m 1,-20 c 0.04798,-1.16495 0.284941,-1.4019 0.604167,-0.60417 0.288871,0.72187 0.253344,1.58438 -0.07895,1.91667 -0.332292,0.33229 -0.568641,-0.25834 -0.52522,-1.3125 z M 719.15789,326 c 0,-1.375 0.22698,-1.9375 0.50439,-1.25 0.27741,0.6875 0.27741,1.8125 0,2.5 -0.27741,0.6875 -0.50439,0.125 -0.50439,-1.25 z m 0,-39 c 0,-1.375 0.22698,-1.9375 0.50439,-1.25 0.27741,0.6875 0.27741,1.8125 0,2.5 -0.27741,0.6875 -0.50439,0.125 -0.50439,-1.25 z m 170.71455,-17.75 c -1.24387,-1.58606 -1.2085,-1.62143 0.37756,-0.37756 1.66575,1.30637 2.19548,2.12756 1.37244,2.12756 -0.20765,0 -0.99515,-0.7875 -1.75,-1.75 z M 769,131.62244 c 0,-0.20765 0.7875,-0.99515 1.75,-1.75 1.58606,-1.24387 1.62143,-1.2085 0.37756,0.37756 C 769.82119,131.91575 769,132.44548 769,131.62244 Z"
         id="path178" />
      <path
         style="fill:#606060;fill-opacity:1"
         d="m 215.75,822.33772 c 0.6875,-0.27741 1.8125,-0.27741 2.5,0 0.6875,0.27741 0.125,0.50439 -1.25,0.50439 -1.375,0 -1.9375,-0.22698 -1.25,-0.50439 z m 583,0 c 0.6875,-0.27741 1.8125,-0.27741 2.5,0 0.6875,0.27741 0.125,0.50439 -1.25,0.50439 -1.375,0 -1.9375,-0.22698 -1.25,-0.50439 z m 6,0 c 0.6875,-0.27741 1.8125,-0.27741 2.5,0 0.6875,0.27741 0.125,0.50439 -1.25,0.50439 -1.375,0 -1.9375,-0.22698 -1.25,-0.50439 z M 251,686.62244 c 0,-0.20765 0.7875,-0.99515 1.75,-1.75 1.58606,-1.24387 1.62143,-1.2085 0.37756,0.37756 C 251.82119,686.91575 251,687.44548 251,686.62244 Z M 186.87244,684.25 c -1.24387,-1.58606 -1.2085,-1.62143 0.37756,-0.37756 1.66575,1.30637 2.19548,2.12756 1.37244,2.12756 -0.20765,0 -0.99515,-0.7875 -1.75,-1.75 z M 917.25218,631.5 c 0.0111,-2.2 0.21589,-2.98225 0.45508,-1.73834 0.23919,1.24391 0.23011,3.04391 -0.0202,4 -0.25029,0.95609 -0.446,-0.0617 -0.4349,-2.26166 z m -0.0572,-23 c 0.0204,-1.65 0.2445,-2.20394 0.49804,-1.23097 0.25354,0.97297 0.23687,2.32297 -0.0371,3 -0.27393,0.67703 -0.48137,-0.11903 -0.46099,-1.76903 z m -550.116,-78.08333 c 0.048,-1.16495 0.28494,-1.4019 0.60416,-0.60417 0.28887,0.72187 0.25335,1.58438 -0.0789,1.91667 -0.33229,0.33229 -0.56864,-0.25834 -0.52522,-1.3125 z m -295.000003,-15 c 0.04798,-1.16495 0.284941,-1.4019 0.604167,-0.60417 0.288871,0.72187 0.253344,1.58438 -0.07895,1.91667 -0.332292,0.33229 -0.568641,-0.25834 -0.52522,-1.3125 z m 223.000003,0 c 0.048,-1.16495 0.28494,-1.4019 0.60416,-0.60417 0.28887,0.72187 0.25335,1.58438 -0.0789,1.91667 -0.33229,0.33229 -0.56864,-0.25834 -0.52522,-1.3125 z M 368.15789,507 c 0,-1.375 0.22698,-1.9375 0.50439,-1.25 0.27741,0.6875 0.27741,1.8125 0,2.5 -0.27741,0.6875 -0.50439,0.125 -0.50439,-1.25 z m -224.07894,-2.58333 c 0.048,-1.16495 0.28494,-1.4019 0.60416,-0.60417 0.28887,0.72187 0.25335,1.58438 -0.0789,1.91667 -0.3323,0.33229 -0.56864,-0.25834 -0.52522,-1.3125 z M 296.30987,473.5 c 0.006,-3.3 0.1923,-4.52944 0.41486,-2.73209 0.22256,1.79735 0.21797,4.49735 -0.0102,6 -0.22818,1.50265 -0.41027,0.0321 -0.40466,-3.26791 z m -224.98173,-9 c 0.0044,-3.85 0.185183,-5.30246 0.401658,-3.2277 0.216476,2.07477 0.212846,5.22477 -0.0081,7 -0.220912,1.77524 -0.398028,0.0777 -0.393592,-3.7723 z m 224.98173,-8 c 0.006,-3.3 0.1923,-4.52944 0.41486,-2.73209 0.22256,1.79735 0.21797,4.49735 -0.0102,6 -0.22818,1.50265 -0.41027,0.0321 -0.40466,-3.26791 z M 144.15789,426 c 0,-1.375 0.22698,-1.9375 0.50439,-1.25 0.27741,0.6875 0.27741,1.8125 0,2.5 -0.27741,0.6875 -0.50439,0.125 -0.50439,-1.25 z m 223.92106,-2.58333 c 0.048,-1.16495 0.28494,-1.4019 0.60416,-0.60417 0.28887,0.72187 0.25335,1.58438 -0.0789,1.91667 -0.33229,0.33229 -0.56864,-0.25834 -0.52522,-1.3125 z m -73,-9 c 0.048,-1.16495 0.28494,-1.4019 0.60416,-0.60417 0.28887,0.72187 0.25335,1.58438 -0.0789,1.91667 -0.33229,0.33229 -0.56864,-0.25834 -0.52522,-1.3125 z M 72.157895,413 c 0,-1.375 0.226973,-1.9375 0.504386,-1.25 0.277412,0.6875 0.277412,1.8125 0,2.5 -0.277413,0.6875 -0.504386,0.125 -0.504386,-1.25 z M 367.07895,399.41667 c 0.048,-1.16495 0.28494,-1.4019 0.60416,-0.60417 0.28887,0.72187 0.25335,1.58438 -0.0789,1.91667 -0.33229,0.33229 -0.56864,-0.25834 -0.52522,-1.3125 z M 719.15789,322 c 0,-1.375 0.22698,-1.9375 0.50439,-1.25 0.27741,0.6875 0.27741,1.8125 0,2.5 -0.27741,0.6875 -0.50439,0.125 -0.50439,-1.25 z m 0,-31 c 0,-1.375 0.22698,-1.9375 0.50439,-1.25 0.27741,0.6875 0.27741,1.8125 0,2.5 -0.27741,0.6875 -0.50439,0.125 -0.50439,-1.25 z M 804,240.62244 c 0,-0.20765 0.7875,-0.99515 1.75,-1.75 1.58606,-1.24387 1.62143,-1.2085 0.37756,0.37756 C 804.82119,240.91575 804,241.44548 804,240.62244 Z m -38,-106 c 0,-0.20765 0.7875,-0.99515 1.75,-1.75 1.58606,-1.24387 1.62143,-1.2085 0.37756,0.37756 C 766.82119,134.91575 766,135.44548 766,134.62244 Z"
         id="path176" />
      <path
         style="fill:#494949;fill-opacity:1"
         d="m 219.75,822.33772 c 0.6875,-0.27741 1.8125,-0.27741 2.5,0 0.6875,0.27741 0.125,0.50439 -1.25,0.50439 -1.375,0 -1.9375,-0.22698 -1.25,-0.50439 z M 149.94617,793.25 146.5,789.5 l 3.75,3.44617 c 2.0625,1.89539 3.75,3.58289 3.75,3.75 0,0.76362 -0.84622,0.0442 -4.05383,-3.44617 z m 565.29672,-80 c -0.13359,-37.5375 0.13737,-68.25 0.60212,-68.25 0.46476,0 1.70226,1.0125 2.75,2.25 l 1.90499,2.25 -2.24296,-1.89862 -2.24297,-1.89862 -0.26414,67.89862 L 715.48579,781.5 Z M 917.35496,619.5 c -0.003,-4.95 0.16605,-7.10108 0.37577,-4.78017 0.20972,2.3209 0.21222,6.3709 0.006,9 C 917.5296,626.34892 917.358,624.45 917.35496,619.5 Z M 295.07895,518.41667 c 0.048,-1.16495 0.28494,-1.4019 0.60416,-0.60417 0.28887,0.72187 0.25335,1.58438 -0.0789,1.91667 -0.33229,0.33229 -0.56864,-0.25834 -0.52522,-1.3125 z m -223.000003,-6 c 0.04798,-1.16495 0.284941,-1.4019 0.604167,-0.60417 0.288871,0.72187 0.253344,1.58438 -0.07895,1.91667 -0.332292,0.33229 -0.568641,-0.25834 -0.52522,-1.3125 z m 72.000003,-5 c 0.048,-1.16495 0.28494,-1.4019 0.60416,-0.60417 0.28887,0.72187 0.25335,1.58438 -0.0789,1.91667 -0.3323,0.33229 -0.56864,-0.25834 -0.52522,-1.3125 z M 368.19495,502.5 c 0.0204,-1.65 0.2445,-2.20394 0.49804,-1.23097 0.25354,0.97297 0.23687,2.32297 -0.0371,3 -0.27393,0.67703 -0.48137,-0.11903 -0.46099,-1.76903 z m -71.88508,-18 c 0.006,-3.3 0.1923,-4.52944 0.41486,-2.73209 0.22256,1.79735 0.21797,4.49735 -0.0102,6 -0.22818,1.50265 -0.41027,0.0321 -0.40466,-3.26791 z m -0.0102,-38.5 c 0,-3.025 0.18747,-4.2625 0.41659,-2.75 0.22913,1.5125 0.22913,3.9875 0,5.5 -0.22912,1.5125 -0.41659,0.275 -0.41659,-2.75 z m 71.89529,-18.5 c 0.0204,-1.65 0.2445,-2.20394 0.49804,-1.23097 0.25354,0.97297 0.23687,2.32297 -0.0371,3 -0.27393,0.67703 -0.48137,-0.11903 -0.46099,-1.76903 z m -224.116,-5.08333 c 0.048,-1.16495 0.28494,-1.4019 0.60416,-0.60417 0.28887,0.72187 0.25335,1.58438 -0.0789,1.91667 -0.3323,0.33229 -0.56864,-0.25834 -0.52522,-1.3125 z m -72.000003,-6 c 0.04798,-1.16495 0.284941,-1.4019 0.604167,-0.60417 0.288871,0.72187 0.253344,1.58438 -0.07895,1.91667 -0.332292,0.33229 -0.568641,-0.25834 -0.52522,-1.3125 z M 719.25218,316.5 c 0.0111,-2.2 0.21589,-2.98225 0.45508,-1.73834 0.23919,1.24391 0.23011,3.04391 -0.0202,4 -0.25029,0.95609 -0.446,-0.0617 -0.4349,-2.26166 z m 0,-20 c 0.0111,-2.2 0.21589,-2.98225 0.45508,-1.73834 0.23919,1.24391 0.23011,3.04391 -0.0202,4 -0.25029,0.95609 -0.446,-0.0617 -0.4349,-2.26166 z M 186,246.62244 c 0,-0.20765 0.7875,-0.99515 1.75,-1.75 1.58606,-1.24387 1.62143,-1.2085 0.37756,0.37756 C 186.82119,246.91575 186,247.44548 186,246.62244 Z M 911.87244,154.25 c -1.24387,-1.58606 -1.2085,-1.62143 0.37756,-0.37756 1.66575,1.30637 2.19548,2.12756 1.37244,2.12756 -0.20765,0 -0.99515,-0.7875 -1.75,-1.75 z m -620.94813,-16 -2.42431,-2.75 2.75,2.42431 c 2.57029,2.26589 3.20859,3.07569 2.42431,3.07569 -0.17912,0 -1.41662,-1.2375 -2.75,-2.75 z"
         id="path174" />
      <path
         style="fill:#000000;fill-opacity:1"
         d="M 258.39053,900.2258 228.28107,822.5 214.89053,821.85349 C 187.34039,820.52333 168.39912,811.53308 147.45129,789.84426 110.85083,751.94913 86.733354,680.05233 77.059925,580 73.039888,538.42073 72.5,524.74572 72.5,464.5 72.5,404.22182 73.043155,390.4821 77.065912,349 84.271625,274.69571 100.05406,214.75286 123.17058,173.89106 137.52758,148.51299 156.5859,128.7207 176,119.02709 c 17.40258,-8.68925 35.41553,-11.99852 54.57876,-10.02701 15.47234,1.5918 26.36257,5.11256 39.91455,12.90421 11.40174,6.55537 29.73622,24.94545 39.44216,39.56177 38.32974,57.72135 58.98193,163.7198 59.04156,303.03394 0.0629,146.96168 -22.87382,257.29131 -65.20925,313.66793 l -6.85832,9.13298 40.54646,94.59954 c 22.30055,52.02975 40.54593,94.93705 40.54527,95.34955 -6.5e-4,0.4125 -20.13869,0.73911 -44.75119,0.7258 L 288.5,977.9516 Z M 235.44838,696.62634 c 27.57548,-10.00936 46.37718,-50.69483 55.05106,-119.12634 4.40156,-34.72556 5.83287,-62.02683 5.84555,-111.5 0.0114,-44.46355 -0.80777,-64.5627 -3.91264,-96 C 282.82529,272.72671 256.7127,226.05812 214.72083,231.11346 178.87702,235.42865 156.14978,284.12451 147.56638,375 c -4.90284,51.90817 -4.90679,127.74423 -0.009,181 7.47763,81.31447 27.61801,129.88931 58.44305,140.95367 8.12437,2.91617 20.90399,2.77412 29.44838,-0.32733 z M 781,820.04131 c -21.06965,-4.50636 -40.32127,-14.97449 -57.35177,-31.18521 l -7.72809,-7.3561 0.28993,-67.91958 0.28993,-67.91958 13.98647,13.29005 c 24.18738,22.98303 45.21623,36.76007 62.01353,40.62812 10.41514,2.39837 22.54391,1.61272 29.78346,-1.92926 17.24318,-8.43631 26.70446,-32.93657 26.71372,-69.17598 0.007,-26.49308 -5.51387,-47.17286 -18.32422,-68.64075 C 824.26151,549.08855 813.81821,535.81533 795.00518,514.5 763.49934,478.80362 751.7461,461.15395 740.62095,432.832 728.17231,401.14078 721.77269,368.36985 720.05135,327.5 c -3.76401,-89.36938 13.90854,-159.79699 48.8285,-194.58842 13.77989,-13.72917 27.82751,-20.61923 46.72315,-22.91672 29.4065,-3.57548 59.87416,10.02956 94.04539,41.99507 l 6.40201,5.98877 -11.21964,56.90461 -11.21964,56.90461 -11.05556,-10.00917 c -23.37847,-21.16573 -39.80702,-29.82805 -57.09632,-30.10529 -15.90476,-0.25504 -26.33304,10.05768 -32.82547,32.46168 -3.68449,12.7144 -4.98386,26.62722 -4.32696,46.33009 1.27177,38.14523 8.68953,53.38015 47.39969,97.35161 28.76399,32.67346 44.02364,54.02672 55.27378,77.34616 13.81577,28.63754 21.74683,59.24921 24.95958,96.337 1.35004,15.5848 1.35434,61.81314 0.007,78.19553 -3.18612,38.74813 -11.2591,72.4118 -23.55772,98.23378 -7.52664,15.80281 -15.21121,26.99094 -25.84009,37.62112 -13.64417,13.64585 -27.43986,21.35048 -44.74927,24.99163 -9.71512,2.04364 -30.0718,1.79379 -40.80005,-0.50075 z M 392.48398,808.2629 C 392.85534,805.6433 417.09577,648.925 446.3516,460 l 53.19241,-343.5 42.70625,-0.26072 42.70625,-0.26072 0.50764,2.26072 C 586.34084,122.14354 693,809.5939 693,811.34018 693,812.85492 689.9477,813 658.07946,813 h -34.92055 l -0.55851,-2.75 c -0.30718,-1.5125 -5.30379,-37.625 -11.10358,-80.25 -5.79979,-42.625 -10.76778,-78.5125 -11.03999,-79.75 L 599.9619,648 h -57.409 -57.40899 l -0.6663,5.25 c -0.36647,2.8875 -5.4742,39.9 -11.35051,82.25 l -10.6842,77 -35.31706,0.2629 -35.31706,0.2629 z M 583.60477,522.25 c -0.30478,-1.5125 -3.06073,-20.75 -6.12433,-42.75 -3.06361,-22 -9.80807,-69.925 -14.9877,-106.5 -9.37895,-66.22776 -15.08775,-111.13946 -17.97577,-141.41731 -0.83504,-8.75452 -1.66433,-16.06338 -1.84287,-16.24193 -0.17854,-0.17854 -1.10979,7.65925 -2.06943,17.41731 -3.81232,38.76515 -14.33403,120.08777 -29.98333,231.74193 -4.54815,32.45 -8.097,59.3375 -7.88633,59.75 0.21066,0.4125 18.61722,0.75 40.90346,0.75 h 40.52044 z"
         id="path172" />
    </g>
  </g>
</svg>
